<svg width="427.24059" height="427" xmlns="http://www.w3.org/2000/svg">

 <g>
  <title>background</title>
  <rect fill="#ffffff" id="canvas_background" height="429" width="429.24059" y="-1" x="-1"/>
 </g>
 <g>
  <title>Layer 1</title>
  <g id="svg_1">
   <path id="svg_2" fill="#9100FF" d="m296.19141,161.30078c20.16406,-0.00781 36.51562,16.33594 36.51953,36.50391c0.0039,20.16406 -16.34375,36.51562 -36.50782,36.51562s-36.51171,-16.34375 -36.51171,-36.51172c-0.00391,-20.16015 16.33984,-36.5039 36.5,-36.50781zm0,0"/>
   <path id="svg_3" fill="#00efd1" d="m300.01953,339.26172c-68.25,34.10547 -151.22656,6.42969 -185.33984,-61.82031c-34.11328,-68.2461 -6.44922,-151.22657 61.79297,-185.34766c68.24609,-34.12109 151.22656,-6.46484 185.35937,61.77344c34.12891,68.23828 6.48438,151.22656 -61.7539,185.36328l-0.0586,0.03125zm32.67969,-141.45313c-0.00391,-20.15625 -16.34766,-36.5 -36.50781,-36.5c-20.15625,0.00391 -36.5,16.34375 -36.5,36.50391c-0.00391,20.16016 16.33984,36.50391 36.5,36.50781c20.16406,0 36.50781,-16.34765 36.50781,-36.51172zm-103.96875,-103.96875c0,-20.16406 -16.34766,-36.50781 -36.51172,-36.50781s-36.50781,16.34375 -36.50781,36.50781c0,20.16407 16.34375,36.51172 36.50781,36.51172c20.16406,-0.0039 36.50781,-16.34765 36.51172,-36.51172zm0,207.94922c0.0039,-20.16406 -16.33985,-36.51562 -36.50391,-36.51953c-20.16406,-0.0039 -36.51562,16.34375 -36.51562,36.50781c-0.00391,20.16407 16.34375,36.51172 36.50781,36.51172c20.16016,0 36.50781,-16.33984 36.51172,-36.5zm-7.98047,-109.44922c0,-15.75781 -12.77344,-28.53125 -28.53125,-28.53125c-15.75391,0 -28.52734,12.77344 -28.52734,28.53125c0,15.75782 12.77343,28.53125 28.52734,28.53125c15.75781,0 28.53516,-12.77343 28.53125,-28.53125zm-96,5.46875c-0.00391,-20.16015 -16.34766,-36.5 -36.51172,-36.5c-20.16016,0.00391 -36.5,16.35157 -36.5,36.51172c0.00391,20.16016 16.35156,36.50391 36.51172,36.5c20.16016,-0.0039 36.50391,-16.34765 36.5,-36.51172zm0,0"/>
   <path id="svg_4" fill="#9100FF" d="m228.73047,93.83984c0,20.16407 -16.34766,36.51172 -36.51172,36.51172s-36.50781,-16.34765 -36.50781,-36.51172c0,-20.16406 16.34375,-36.50781 36.50781,-36.50781s36.51172,16.34375 36.51172,36.50781zm0,0"/>
   <path id="svg_5" fill="#9100FF" d="m192.21875,265.28125c20.16016,0 36.50391,16.34766 36.5,36.50391c0,20.16015 -16.34375,36.5039 -36.50391,36.5039c-20.15625,0.00391 -36.5039,-16.33984 -36.5039,-36.5c0,-20.16406 16.34375,-36.50781 36.50781,-36.50781zm0,0"/>
   <path id="svg_6" fill="#fedb41" d="m220.75,192.33984c0,15.75782 -12.77344,28.53125 -28.53125,28.53125c-15.75391,0 -28.52734,-12.77343 -28.52734,-28.53125c0,-15.75781 12.77343,-28.53125 28.52734,-28.53125c15.75781,0 28.53125,12.77344 28.53125,28.53125zm0,0"/>
   <path id="svg_7" fill="#9100FF" d="m88.25,161.30078c20.16406,0 36.51172,16.34375 36.51172,36.50781c0,20.16407 -16.34766,36.51172 -36.51172,36.51172s-36.51172,-16.34765 -36.51172,-36.51172c0,-20.16406 16.34766,-36.51171 36.51172,-36.50781zm0,0"/>
   <g id="svg_8" fill="#083863">
    <path id="svg_9" fill="#0089FF" class="active-path" d="m192.21875,384.55859c40.71875,0.10938 80.40234,-12.82031 113.24219,-36.89062c34.62109,-20.90234 79.4414,-12.26172 103.8164,20.01172c3.33985,4.39844 9.61329,5.2539 14.01172,1.91406c4.39844,-3.34375 5.25391,-9.61719 1.91406,-14.01562c-20.28125,-26.82422 -52.79296,-41.51563 -86.33203,-39.01563c29.48829,-34.66406 45.64844,-78.71094 45.57032,-124.22266c0,-105.99218 -86.23047,-192.21875 -192.22266,-192.21875c-105.98828,0 -192.21875,86.22657 -192.21875,192.21875c0,105.99219 86.23047,192.21875 192.21875,192.21875zm0,-364.4375c94.96484,0 172.22266,77.25782 172.22266,172.21875c0.08593,27.5 -6.48438,54.60938 -19.15625,79.01563c-12.17578,23.45703 -29.54297,43.82422 -50.77735,59.55859c-2.83203,1.73438 -5.62109,3.63672 -8.28906,5.65625c-0.17578,0.13282 -0.33594,0.27735 -0.5,0.42188c-27.82422,18.07812 -60.31641,27.65625 -93.5,27.5664c-94.96094,0 -172.21875,-77.25781 -172.21875,-172.21875c0,-94.96093 77.25781,-172.21875 172.21875,-172.21875zm0,0"/>
    <path id="svg_10" fill="#0089FF" class="active-path" d="m192.21875,153.80859c-21.27734,0 -38.52734,17.25391 -38.52734,38.53125c0,21.28125 17.25,38.53125 38.52734,38.53125c21.28125,0 38.53125,-17.25 38.53125,-38.53125c-0.02344,-21.26953 -17.26172,-38.5039 -38.53125,-38.53125zm0,57.0625c-10.23437,0 -18.52734,-8.29687 -18.52734,-18.53125s8.29297,-18.53125 18.52734,-18.53125s18.53125,8.29688 18.53125,18.53125c-0.01172,10.23047 -8.30078,18.51954 -18.53125,18.53125zm0,0"/>
    <path id="svg_11" fill="#0089FF" class="active-path" d="m192.21875,140.35156c25.6875,0 46.51172,-20.82422 46.51172,-46.51172s-20.82422,-46.50781 -46.51172,-46.50781c-25.68359,0 -46.50781,20.82031 -46.50781,46.50781c0.02734,25.67579 20.83594,46.48047 46.50781,46.51172zm0,-73.01953c14.64063,0 26.51172,11.86719 26.51172,26.50781s-11.87109,26.51172 -26.51172,26.51172s-26.50781,-11.87109 -26.50781,-26.51172c0.01562,-14.63281 11.875,-26.49218 26.50781,-26.50781zm0,0"/>
    <path id="svg_12" fill="#0089FF" class="active-path" d="m192.21875,348.28906c25.68359,0 46.50391,-20.82422 46.5,-46.50781c0,-25.68359 -20.82422,-46.50391 -46.50781,-46.5c-25.6836,0 -46.50391,20.82422 -46.5,46.50781c0.03125,25.67188 20.83594,46.47657 46.50781,46.5zm0,-73.00781c14.63672,0 26.50391,11.86719 26.5,26.50391c0,14.64062 -11.86328,26.5039 -26.50391,26.5039c-14.63671,0.00391 -26.5039,-11.86328 -26.5039,-26.5c0.01562,-14.63281 11.875,-26.49218 26.50781,-26.50781zm0,0"/>
    <path id="svg_13" fill="#0089FF" class="active-path" d="m296.19141,244.32031c25.6875,0.00391 46.51562,-20.8164 46.51953,-46.5039c0.0039,-25.6875 -20.82032,-46.51563 -46.50782,-46.51563c-25.6875,-0.0039 -46.51171,20.82031 -46.51171,46.50781c0.02734,25.67188 20.82812,46.47657 46.5,46.51172zm0,-73.01953c14.64062,-0.00781 26.51562,11.85938 26.51953,26.50391c0.0039,14.64062 -11.86328,26.51562 -26.50782,26.51562c-14.64062,0 -26.51171,-11.86718 -26.51171,-26.51172c0.01562,-14.6289 11.86718,-26.48437 26.5,-26.50781zm0,0"/>
    <path id="svg_14" fill="#0089FF" class="active-path" d="m134.75,197.80859c-0.00391,-25.68359 -20.82422,-46.5 -46.51172,-46.5c-25.68359,0.00391 -46.5,20.82813 -46.5,46.51172c0.00391,25.6836 20.82813,46.50391 46.51172,46.5c25.67188,-0.03125 46.47266,-20.83984 46.5,-46.51172zm-73.01172,0c0.00391,-14.63671 11.8711,-26.5 26.50781,-26.5c14.63672,0.00391 26.50391,11.86719 26.50391,26.50391s-11.86328,26.50391 -26.5,26.50781c-14.63281,-0.01562 -26.49219,-11.875 -26.51172,-26.51172zm0,0"/>
   </g>
  </g>
 </g>
</svg>